<?xml version="1.0" ?><!DOCTYPE svg  PUBLIC '-//W3C//DTD SVG 1.1//EN'  'http://www.w3.org/Graphics/SVG/1.1/DTD/svg11.dtd'><svg aria-labelledby="simpleicons-instagram-icon" enable-background="new 0 0 24 24" height="3.33333in" role="img" style="shape-rendering:geometricPrecision; text-rendering:geometricPrecision; image-rendering:optimizeQuality; fill-rule:evenodd; clip-rule:evenodd" version="1.1" viewBox="0 0 3333 3333" width="3.33333in" xml:space="preserve" xmlns="http://www.w3.org/2000/svg" xmlns:xlink="http://www.w3.org/1999/xlink"><defs><style type="text/css">
   <![CDATA[
    .fil0 {fill:black}
    .fil1 {fill:white}
   ]]>
  </style></defs><g id="Layer_x0020_1"><circle class="fil0" cx="1667" cy="1667" r="1667"/><g id="_817914192"><path class="fil1" d="M1667 845c-224,0 -252,1 -339,5 -88,4 -147,17 -200,38 -54,21 -100,49 -145,95 -46,45 -74,91 -95,145 -21,53 -34,112 -38,200 -4,87 -5,115 -5,339 0,223 1,251 5,339 4,87 17,147 38,199 21,54 49,100 95,146 45,45 91,74 145,94 53,21 112,35 200,39 87,4 115,5 339,5 223,0 251,-1 339,-5 87,-4 147,-18 199,-39 54,-20 100,-49 146,-94 45,-46 74,-92 94,-146 21,-52 35,-112 39,-199 4,-88 5,-116 5,-339 0,-224 -1,-252 -5,-339 -4,-88 -18,-147 -39,-200 -20,-54 -49,-100 -94,-145 -46,-46 -92,-74 -146,-95 -52,-20 -112,-34 -199,-38 -88,-4 -116,-5 -339,-5zm0 148c219,0 245,1 332,5 80,3 124,17 152,28 39,15 66,33 95,61 29,29 47,56 61,95 12,29 25,72 29,152 4,87 5,113 5,333 0,219 -1,245 -6,332 -4,80 -17,124 -28,152 -16,39 -33,66 -62,95 -29,29 -56,47 -94,61 -29,12 -73,25 -154,29 -87,4 -113,5 -332,5 -220,0 -246,-1 -333,-6 -80,-4 -125,-17 -153,-28 -39,-16 -66,-33 -95,-62 -29,-29 -47,-56 -61,-94 -12,-29 -25,-73 -29,-154 -3,-86 -4,-113 -4,-331 0,-219 1,-246 4,-333 4,-80 17,-125 29,-153 14,-39 32,-66 61,-95 29,-29 56,-47 95,-61 28,-12 72,-25 152,-29 87,-3 113,-4 333,-4l3 2 0 0zm0 252c-234,0 -422,189 -422,422 0,233 189,422 422,422 233,0 422,-189 422,-422 0,-234 -189,-422 -422,-422zm0 696c-152,0 -274,-123 -274,-274 0,-152 122,-274 274,-274 151,0 274,122 274,274 0,151 -123,274 -274,274zm537 -713c0,54 -44,99 -99,99 -54,0 -98,-45 -98,-99 0,-54 44,-99 98,-99 55,0 99,45 99,99z"/></g></g></svg>